0.11m3min_grf.mot
version=1
nRows=30
nColumns 19
inDegrees=yes
endheader
time	1_ground_force_vx	1_ground_force_vy	1_ground_force_vz	1_ground_force_px	1_ground_force_py	1_ground_force_pz	1_ground_torque_x	1_ground_torque_y	1_ground_torque_z	2_ground_force_vx	2_ground_force_vy	2_ground_force_vz	2_ground_force_px	2_ground_force_py	2_ground_force_pz	2_ground_torque_x	2_ground_torque_y	2_ground_torque_z
            3.751500	           29.565913	          301.196868	          -33.174814	           -0.290476	            0.006319	           -0.430207	           -0.002335	           -0.023790	            0.002620	           -0.237358	          315.717313	           29.236411	           -0.280324	            0.005608	           -0.735910	           -0.000660	            0.877773	            0.081285
            3.752000	           30.387448	          306.789816	          -34.207590	           -0.290674	            0.006322	           -0.430963	            0.013585	            0.137154	           -0.015293	           -0.728543	          322.156164	           30.573595	           -0.280670	            0.005608	           -0.736120	           -0.002094	            0.925930	            0.087874
            3.752500	           30.384394	          312.922191	          -34.960856	           -0.290442	            0.006324	           -0.431271	            0.016842	            0.173453	           -0.019379	           -1.220578	          328.780602	           31.489082	           -0.280517	            0.005608	           -0.736091	           -0.003675	            0.989787	            0.094797
            3.753000	           30.472423	          319.235802	          -35.942860	           -0.290436	            0.006324	           -0.431342	            0.013180	            0.138079	           -0.015546	           -1.427566	          334.301545	           32.306651	           -0.280461	            0.005608	           -0.736131	           -0.004309	            1.009120	            0.097521
            3.753500	           29.919364	          326.629371	          -36.551786	           -0.290640	            0.006323	           -0.431145	            0.002192	            0.023925	           -0.002677	           -1.684543	          340.741516	           33.549879	           -0.280563	            0.005608	           -0.736214	           -0.005215	            1.054864	            0.103863
            3.754000	           29.778178	          334.204435	          -37.436099	           -0.290739	            0.006322	           -0.430941	           -0.004623	           -0.051880	            0.005811	           -2.225798	          348.100065	           35.125007	           -0.280512	            0.005609	           -0.736391	           -0.006477	            1.012951	            0.102212
            3.754500	           29.729621	          340.336212	          -38.051687	           -0.290856	            0.006322	           -0.430871	           -0.000184	           -0.002110	            0.000236	           -2.805989	          353.249197	           36.551487	           -0.280547	            0.005607	           -0.735900	           -0.007637	            0.961403	            0.099479
            3.755000	           29.725701	          348.091931	          -39.027280	           -0.290520	            0.006320	           -0.430453	            0.007276	            0.085204	           -0.009553	           -3.484532	          359.686977	           37.982606	           -0.280536	            0.005608	           -0.736090	           -0.009642	            0.995325	            0.105105
            3.755500	           29.263663	          354.765831	          -39.960520	           -0.290724	            0.006323	           -0.431095	            0.020138	            0.244137	           -0.027499	           -4.444840	          366.307942	           39.414502	           -0.280522	            0.005610	           -0.736531	           -0.013383	            1.102953	            0.118677
            3.756000	           28.711371	          361.076762	          -40.344801	           -0.290481	            0.006325	           -0.431508	            0.015926	            0.200283	           -0.022379	           -5.263933	          372.745214	           40.845681	           -0.280069	            0.005612	           -0.736706	           -0.016619	            1.176805	            0.128955
            3.756500	           28.341309	          368.651192	          -41.090980	           -0.290209	            0.006323	           -0.431175	            0.017898	            0.232814	           -0.025950	           -5.847632	          378.816557	           41.853093	           -0.280318	            0.005610	           -0.736433	           -0.019164	            1.241462	            0.137161
            3.757000	           27.145849	          374.964420	          -42.023939	           -0.290655	            0.006324	           -0.431431	            0.014205	            0.196207	           -0.021990	           -6.619458	          385.071926	           42.720458	           -0.280035	            0.005612	           -0.736654	           -0.021752	            1.265379	            0.140383
            3.757500	           25.997487	          381.275432	          -42.452600	           -0.290771	            0.006327	           -0.431987	            0.003334	            0.048893	           -0.005444	           -7.112636	          392.063139	           44.059612	           -0.279936	            0.005613	           -0.736996	           -0.021654	            1.193608	            0.134136
            3.758000	           25.260927	          388.128532	          -43.155102	           -0.290829	            0.006326	           -0.431829	            0.009406	            0.144526	           -0.016070	           -7.927659	          397.394897	           45.674561	           -0.279804	            0.005613	           -0.736690	           -0.022290	            1.117324	            0.128420
            3.758500	           24.065725	          395.522567	          -43.900006	           -0.290213	            0.006326	           -0.431881	            0.009987	            0.164145	           -0.018219	           -8.415706	          402.914490	           46.586106	           -0.279854	            0.005612	           -0.736490	           -0.026737	            1.280097	            0.148008
            3.759000	           23.603507	          402.557135	          -44.877553	           -0.290520	            0.006326	           -0.431853	            0.021493	            0.366570	           -0.040866	           -9.235279	          409.534396	           48.440295	           -0.280184	            0.005611	           -0.736690	           -0.027837	            1.234440	            0.146011
            3.759500	           22.775962	          408.688171	          -45.353636	           -0.290574	            0.006327	           -0.432008	            0.021447	            0.384849	           -0.042708	          -10.006460	          415.605731	           49.260075	           -0.279712	            0.005614	           -0.737081	           -0.033743	            1.401456	            0.166109
            3.760000	           21.901692	          415.901972	          -46.100110	           -0.290443	            0.006328	           -0.432135	            0.020145	            0.382538	           -0.042402	          -10.493075	          420.756206	           50.404946	           -0.279947	            0.005612	           -0.736661	           -0.035496	            1.423328	            0.170509
            3.760500	           20.936473	          422.213474	          -46.620937	           -0.290632	            0.006328	           -0.432304	            0.017734	            0.357623	           -0.039489	          -11.080097	          427.748313	           51.415644	           -0.279761	            0.005614	           -0.736973	           -0.034535	            1.333234	            0.160256
            3.761000	           20.016266	          428.706597	          -47.462094	           -0.290560	            0.006329	           -0.432554	            0.016676	            0.357174	           -0.039543	          -11.518156	          432.348818	           51.901531	           -0.279824	            0.005613	           -0.736701	           -0.035746	            1.341790	            0.161076
            3.761500	           18.684299	          435.017967	          -47.982012	           -0.290562	            0.006329	           -0.432584	            0.014116	            0.328663	           -0.036251	          -11.638756	          439.895708	           52.726288	           -0.279679	            0.005614	           -0.736953	           -0.034117	            1.289487	            0.154559
            3.762000	           17.946680	          443.314568	          -48.999325	           -0.290209	            0.006327	           -0.432020	            0.018313	            0.452352	           -0.049998	          -11.800080	          445.783930	           53.873648	           -0.279740	            0.005614	           -0.737010	           -0.034981	            1.321496	            0.159705
            3.762500	           17.394456	          448.003532	          -49.482274	           -0.290556	            0.006331	           -0.432843	            0.023322	            0.600663	           -0.066344	          -12.284680	          450.381754	           55.063476	           -0.279669	            0.005613	           -0.736673	           -0.039570	            1.450704	            0.177362
            3.763000	           16.795394	          455.036955	          -50.184343	           -0.290175	            0.006330	           -0.432763	            0.023456	            0.635479	           -0.070085	          -12.591391	          457.560021	           55.793142	           -0.279769	            0.005614	           -0.736886	           -0.042140	            1.531345	            0.186726
            3.763500	           16.242548	          461.889500	          -50.749736	           -0.290151	            0.006329	           -0.432578	            0.023519	            0.668797	           -0.073483	          -12.942855	          464.184799	           56.755498	           -0.279826	            0.005614	           -0.737096	           -0.042978	            1.541378	            0.188463
            3.764000	           15.414935	          468.381067	          -51.224273	           -0.290126	            0.006329	           -0.432531	            0.021709	            0.659631	           -0.072140	          -12.871383	          470.443213	           57.622504	           -0.279773	            0.005614	           -0.736977	           -0.039908	            1.458632	            0.178661
            3.764500	           14.496666	          473.609351	          -51.383005	           -0.290426	            0.006331	           -0.433009	            0.019340	            0.631828	           -0.068549	          -12.698276	          474.492429	           58.387729	           -0.280049	            0.005612	           -0.736654	           -0.039549	            1.477816	            0.181850
            3.765000	           13.669349	          479.739994	          -51.767384	           -0.290056	            0.006333	           -0.433349	            0.021691	            0.761275	           -0.082147	          -12.110433	          480.386873	           58.549280	           -0.280079	            0.005611	           -0.736390	           -0.036340	            1.441490	            0.175688
            3.765500	           12.657698	          486.773336	          -52.468429	           -0.290041	            0.006331	           -0.432879	            0.022027	            0.847098	           -0.091307	          -11.757258	          486.462602	           59.274725	           -0.279987	            0.005612	           -0.736599	           -0.035049	            1.450181	            0.176702
            3.766000	           12.152261	          491.280440	          -52.585418	           -0.289917	            0.006334	           -0.433546	            0.024679	            0.997694	           -0.106791	          -11.544694	          492.538388	           59.859446	           -0.280151	            0.005611	           -0.736616	           -0.036588	            1.560982	            0.189710
